PathFileType	4	(X/Y/Z)	RBDS026\RBDS026runT25.trc
DataRate	CameraRate	NumFrames	NumMarkers	Units	OrigDataRate	OrigDataStartFrame	OrigNumFrames
150.000000	150.000000	5	33	mm	150.000000	1125	4500
Frame#	Time	L.ASIS			L.Heel.Bottom			L.Heel.Lateral			L.Heel.Top			L.Iliac.Crest			L.MT1			L.MT5			L.PSIS			L.Shank.Bottom.Lateral			L.Shank.Bottom.Medial			L.Shank.Top.Lateral			L.Shank.Top.Medial			L.Thigh.Bottom.Lateral			L.Thigh.Bottom.Medial			L.Thigh.Top.Lateral			L.Thigh.Top.Medial			R.ASIS			R.ASY			R.Heel.Bottom			R.Heel.Lateral			R.Heel.Top			R.Iliac.Crest			R.MT1			R.MT5			R.PSIS			R.Shank.Bottom.Lateral			R.Shank.Bottom.Medial			R.Shank.Top.Lateral			R.Shank.Top.Medial			R.Thigh.Bottom.Lateral			R.Thigh.Bottom.Medial			R.Thigh.Top.Lateral			R.Thigh.Top.Medial			
		X1	Y1	Z1	X2	Y2	Z2	X3	Y3	Z3	X4	Y4	Z4	X5	Y5	Z5	X6	Y6	Z6	X7	Y7	Z7	X8	Y8	Z8	X9	Y9	Z9	X10	Y10	Z10	X11	Y11	Z11	X12	Y12	Z12	X13	Y13	Z13	X14	Y14	Z14	X15	Y15	Z15	X16	Y16	Z16	X17	Y17	Z17	X18	Y18	Z18	X19	Y19	Z19	X20	Y20	Z20	X21	Y21	Z21	X22	Y22	Z22	X23	Y23	Z23	X24	Y24	Z24	X25	Y25	Z25	X26	Y26	Z26	X27	Y27	Z27	X28	Y28	Z28	X29	Y29	Z29	X30	Y30	Z30	X31	Y31	Z31	X32	Y32	Z32	X33	Y33	Z33	

1126	7.500000000000001	2221.37410629509	1024.011791258185	895.4007025580412	1770.36114393669	92.53558015088939	1019.048249306852	1803.70342577574	100.4412803170721	967.824094409153	1791.59807357003	135.2634426637812	1014.826479242847	2151.929959212196	1102.381668929483	858.824517121787	1987.604457727135	45.72063674184688	1033.349519531821	1934.930838512513	45.28649716570481	930.4551968977033	2058.168393553322	1084.65463966843	982.1460111337522	1896.371222221416	198.6318990587135	936.7637214490992	1861.26723801813	225.2962241364759	962.1788235664767	1930.312010791561	265.2265568902133	905.7957099207673	1894.750579255372	295.9467296813564	930.1782438616134	2081.587652429162	629.5586090149596	861.8352708249913	2025.997190115454	637.7220961946922	907.9535201708009	2083.29696075323	738.4127514046877	845.6107544679431	2032.847999058301	745.8924010917483	893.5671248258967	2234.193887633461	1040.021843909863	1138.312626106203	2196.200172402359	141.6638141992894	1148.305795526701	2008.878226597052	169.0072331752187	1126.251375201213	2044.442769333139	181.6490786378569	1171.144249674806	2036.430105914047	205.6918136978663	1119.844687968397	2165.24537369971	1108.401106934265	1183.764357984496	2213.910709596904	79.28838775244742	1110.153333967601	2181.830343071325	102.4599711957234	1215.083806218062	2062.760800637294	1084.517450455884	1080.556389789844	2147.596087201012	261.0079267979709	1179.007717481326	2106.251605935684	284.2712309137502	1150.128975472576	2178.821171619442	335.4230441841163	1190.673049637191	2138.538842688779	356.6467587258836	1161.594767885421	2327.551561523281	654.7444406744125	1182.799082071046	2263.549631789699	626.8944595692851	1166.598694748634	2279.915904628785	753.4957220719336	1200.445617424024	2218.590673219046	726.0371859672022	1187.396615314976	
1127	7.506666666666667	2222.099538765232	1027.877072744609	895.7058427365777	1757.932743750685	102.217620186652	1018.31477709924	1791.591097098875	108.1141546692629	967.0272480847846	1780.896286683786	143.9252437901444	1013.671580263314	2154.086610133731	1107.547876590219	859.2322596788388	1972.279452861737	45.67369170898185	1033.113796173068	1919.589489370037	46.53829601139575	930.1434281065957	2059.49562357162	1090.036698926632	982.3140114948978	1884.05583587045	205.3456032827754	935.4437902102904	1849.693308704845	231.8077113391332	962.0403088678013	1917.809066886179	272.1681814985822	904.7930899800286	1882.869014295284	302.6757592308097	930.3297630252439	2073.674340861006	635.8937455869449	861.1501718087272	2018.716820293372	645.1829386264092	907.8523199320002	2077.872185483446	744.779825671702	845.4611336086123	2028.021115215043	753.2301285189714	893.9252134817964	2235.61103996699	1046.282837797882	1137.857304057176	2218.403569241862	137.99996573837	1145.530332808675	2029.848135405318	154.7244512641811	1123.004189742139	2064.373333662003	169.0975264903325	1168.262243062665	2055.246262012134	193.0115407785527	1116.991641756731	2166.989803605771	1115.700968679959	1183.699623817844	2239.765500424761	77.02928488458706	1106.985521700785	2206.035578950817	97.49411889868442	1211.948006217976	2064.284931883541	1090.595351038025	1080.831718643146	2163.04199947082	254.2327905681597	1177.017110163012	2120.508581816832	275.4165336306749	1148.084947596589	2189.976428848503	330.1754644763718	1189.413008370564	2148.688143434366	349.4501520452054	1160.27029685793	2327.078573758256	659.8089209100748	1182.788143726149	2262.84183256964	632.1932114967551	1167.219597481577	2279.962784586489	758.8595648639691	1200.285032655108	2218.509884750046	731.6838273265089	1187.522504223475	
1128	7.513333333333334	2222.960064459305	1031.884220267211	896.0432109569896	1746.185323764326	112.3647004988982	1017.276917270375	1780.089085618439	116.0965282355326	965.9574973481906	1770.950967339083	152.9124996866348	1012.190678248635	2156.155055555674	1112.751253666601	859.7196489040271	1957.284662295681	45.8467942263436	1032.791715521519	1904.621618823851	47.95282139105795	929.7126959133903	2060.881203949875	1095.299020103282	982.6186296929318	1872.42008089546	212.2552028363099	933.8683404697831	1838.809013197323	238.4638378280414	961.6557888143932	1905.989138881926	279.3452428605265	903.6183754298814	1871.683835684889	309.5994395813072	930.3252330980599	2066.325340668198	642.3877548679278	860.3639725392417	2012.023264382403	652.6954658028011	907.6652330220147	2072.849624989668	751.2466651354172	845.2058865785115	2023.633547535043	760.5660243866101	894.1900380449893	2237.052466785296	1052.41165208311	1137.428330171237	2240.559976219671	134.901314099986	1142.421043906862	2051.364614239616	140.9967058232414	1119.597410913525	2084.83589346147	156.9761168252069	1165.182236668029	2074.534223870427	180.7615073653616	1114.015329039101	2168.669934581163	1122.773179423817	1183.621949261213	2265.449743973285	75.59664108806281	1103.37936451987	2230.383868304485	93.14832614850869	1208.440464067377	2065.910365595372	1096.481953401007	1081.21907600832	2178.662072180303	247.6392005856593	1174.960015488278	2135.040273277327	266.7070045439728	1146.018456901517	2201.257948965637	324.8399898647333	1188.171912523416	2159.044293120816	342.1384551275204	1159.013526842666	2325.935195521628	664.192136202916	1182.983168081028	2261.440700685034	636.9443528628414	1167.963498410062	2279.565648092887	763.6406221063609	1200.178440954649	2217.936700222783	736.8619528780476	1187.672797587108	
1129	7.52	2223.933481474749	1036.008738218373	896.3828738503354	1735.124798168654	122.8998269005742	1015.932980176108	1769.178176431175	124.3321610699279	964.6134322251332	1761.73252908211	162.150424435474	1010.373860551152	2158.105187603004	1117.968484681385	860.2802261638957	1942.637268490267	46.32507667968704	1032.374328164997	1890.032111508327	49.55827654635907	929.1742159912268	2062.309947187196	1100.397161721438	983.0474609396782	1861.481787942784	219.2780609785826	932.0527849130359	1828.606070739836	245.1925310306051	961.0006763717009	1894.884733519491	286.6639291162046	902.2778147447426	1861.214488024689	316.6350369585723	930.1386170549384	2059.536707015247	648.9589799749612	859.5292137926014	2005.921179960202	660.1937160118565	907.4594534220347	2068.231713495798	757.7376161335718	844.8792351064981	2019.698990666301	767.8400840002319	894.4097847969335	2238.504550064911	1058.30722126383	1137.017295162163	2262.552314066227	132.4326364947118	1138.95058722904	2073.290948255746	127.9758851823182	1116.129680236178	2105.753512420683	145.4133775017527	1161.970772987772	2094.170976389404	169.0807797124384	1111.013353959032	2170.262329772313	1129.526374913375	1183.537253454445	2290.771349075402	75.05655863886216	1099.269011587548	2254.792634270393	89.49424411609029	1204.521245331449	2067.627458596417	1102.111442436416	1081.710681381193	2194.402582941471	241.3164439339891	1172.862035943608	2149.7822472409	258.2447888882559	1143.991808076292	2212.659735941951	319.4906963471074	1186.977165926389	2169.584064021463	334.7928312368959	1157.888612361863	2324.196556964222	667.8600811648848	1183.403045282696	2259.424496812427	641.1007398786686	1168.846322585368	2278.774269675013	767.7895490167261	1200.163232949657	2216.920845186698	741.510205628146	1187.889748262757	
1130	7.526666666666667	2224.994887714759	1040.210628250248	896.6988450647842	1724.747420597417	133.7487588786675	1014.320263427754	1758.824977109531	132.7786239382725	963.0253165522557	1753.198202224973	171.5734575349792	1008.248114588217	2159.9151054181	1123.171918720149	860.9050998829933	1928.351057651929	47.18450562286363	1031.841869614972	1875.808472918029	51.39182036548966	928.541771311756	2063.767694998665	1105.289551456459	983.5801098613017	1851.243963267736	226.3350312371829	930.0316262372974	1819.062666873573	251.9317844644341	960.0692653919609	1884.516435714582	294.027977773414	900.7871373031473	1851.469609649895	323.7035366746582	929.7538667278798	2053.306555444304	655.5193777620868	858.6941005368303	2000.413698646822	667.604218854005	907.2910126180047	2064.02523761775	764.1719246656789	844.5138903508367	2016.231497683713	774.9862284326753	894.6259593532369	2239.955526213986	1063.874595155474	1136.614026447534	2284.247872242428	130.6449625873238	1135.111577323981	2095.466775016312	115.7988944003746	1112.687677304582	2127.019286771993	134.5304096480575	1158.692147505925	2114.01176206079	158.0957589696386	1108.075685713424	2171.760540539891	1135.882404547639	1183.453293015929	2315.526535430316	75.45309536795337	1094.615192658618	2279.149425166993	86.59243413067786	1200.166186769065	2069.424252057759	1107.423727520117	1082.291334897611	2210.184300315787	235.3533590011293	1170.74575593153	2164.646326850559	250.1288495731463	1142.05389060386	2224.145407651437	314.2115069496764	1185.848168484778	2180.258828390002	327.5012452220531	1156.941280699936	2321.954971103624	670.7988109996378	1184.06314706802	2256.89033119671	644.6350975261313	1169.874524733317	2277.649008100224	771.2740145834713	1200.286169418567	2215.52714012241	745.5844957545148	1188.214202569568	
